<svg width="185" height="339" viewBox="0 0 185 339" fill="none" xmlns="http://www.w3.org/2000/svg">
<path d="M180.375 70.3427C169.877 79.8789 159.255 90.037 150.609 101.128C159.996 67.0258 131.466 34.8931 132.454 0.790894C132.454 -0.245647 130.478 -0.245685 130.354 0.687202C130.107 2.0347 129.984 3.27854 129.86 4.62604C129.366 4.41874 128.748 4.52241 128.748 5.04069C127.76 21.3144 130.478 37.6917 132.207 53.9654C133.071 62.0504 134.183 70.1354 135.665 78.2204C136.035 80.3972 136.406 82.6776 136.776 84.9579C133.442 79.0497 129.489 73.3487 125.537 68.166C116.521 56.2458 105.405 45.5694 92.931 36.0333C90.8313 34.4785 87.1261 36.6551 88.3611 38.8319C95.2776 51.2704 103.182 63.2943 111.828 75.0072C119.485 85.3726 128.254 98.9513 139.864 106.829C139.864 107.244 139.864 107.555 139.864 107.969C124.179 102.061 106.887 98.3294 90.4608 94.0796C87.3731 93.2503 84.9029 96.2563 87.4966 98.2257C95.2776 104.445 104.294 109.317 114.298 112.53C121.832 114.914 131.342 117.713 139.617 116.572C139.247 128.596 138.876 140.62 137.394 152.644C127.143 146.218 115.78 141.346 103.8 137.614C101.947 136.992 99.2299 138.547 100.218 140.413C103.8 146.321 108.864 151.193 115.78 154.51C121.214 157.101 130.107 160.004 136.282 158.138C136.529 158.034 136.653 157.93 136.776 157.827C135.418 168.089 133.812 178.247 131.713 188.405C129.119 200.74 126.031 212.971 121.955 225.098C118.003 236.915 113.804 248.628 109.481 260.341C104.294 218.153 89.5962 177.21 71.317 137.822C69.9584 134.919 65.2651 136.163 65.2651 138.962C65.3886 162.491 76.0103 184.673 85.6439 206.337C93.672 224.269 100.094 241.579 102.688 260.133C100.341 256.816 97.3773 253.707 95.1541 251.012C85.1499 239.299 74.6518 227.897 63.783 216.806C61.3128 214.318 57.237 217.013 59.0896 219.708C71.1935 237.537 84.6559 254.951 100.836 270.291C101.33 272.054 101.824 273.919 101.947 275.889C102.071 276.614 102.565 277.029 103.182 277.236C102.194 280.035 101.083 282.834 99.971 285.632C95.8952 294.754 91.5724 303.772 87.0026 312.686C85.397 307.089 81.8152 301.699 78.7275 296.827C73.9107 289.364 68.2293 282.523 61.5598 276.2C59.7072 274.438 54.8904 275.163 55.755 278.065C58.2251 287.291 62.5479 297.138 68.8468 305.534C55.6314 298.278 42.416 291.022 29.0771 283.766C27.101 282.73 23.6428 284.077 24.8779 286.254C33.894 302.631 52.7908 311.442 72.7991 316.003C49.0855 313.412 26.4835 307.607 3.88145 300.766C0.423211 299.729 -1.55295 303.564 1.53476 305.016C25.0014 316.521 53.4083 324.192 80.9506 323.984C79.7156 326.368 78.357 328.752 77.1219 331.24C75.3928 333.106 73.5401 334.972 71.4405 336.734C70.6994 337.356 71.6875 338.288 72.5521 337.978C73.2931 337.77 73.9107 337.459 74.6517 337.252C75.1458 337.563 75.7633 337.563 76.1339 336.941C76.2574 336.734 76.3809 336.526 76.5044 336.423C93.9191 328.338 99.8474 309.68 105.405 294.65C107.875 288.016 110.346 281.279 112.692 274.438C125.661 272.779 138.629 263.865 147.892 256.713C159.008 248.109 168.395 238.159 177.781 228.312C180.004 226.031 176.546 223.44 173.705 224.787C156.908 233.08 140.976 242.616 126.402 253.499C123.438 255.676 120.226 257.957 117.262 260.444C118.744 255.573 120.103 250.701 121.461 245.725C124.796 236.189 127.884 226.549 130.601 217.013C136.035 197.941 139.988 178.558 142.705 159.071C147.275 156.998 151.103 153.992 155.056 151.297C160.12 147.876 165.06 144.455 170 140.931C172.347 139.273 170.371 135.852 167.407 136.889C158.514 139.895 150.239 144.248 143.94 150.26C144.31 147.358 144.681 144.559 144.928 141.657C146.657 131.706 147.892 121.755 148.51 111.701C156.661 109.628 164.072 102.061 169.259 96.7745C176.299 89.5187 181.363 81.4337 184.821 72.5195C185.809 70.2391 182.475 68.3733 180.375 70.3427Z" fill="#96D06B" fill-opacity="0.34"/>
</svg>
