<svg width="216" height="325" viewBox="0 0 216 325" fill="none" xmlns="http://www.w3.org/2000/svg">
<path d="M211.577 330C200.895 322.243 191.691 312.522 183.486 302.309C144.389 293.199 106.69 279.333 72.2591 261.069C72.0904 261.015 71.8697 260.862 71.701 260.808C69.313 259.468 66.8602 258.27 64.5889 256.887C42.7792 258.234 19.4463 249.57 1.76987 239.964C-0.00816291 238.984 1.30119 236.965 3.23454 237.182C16.9109 239.233 31.5994 241.611 45.4065 245.494C34.621 238.598 24.1987 231.332 14.3729 223.607C13.711 223.149 14.6707 222.32 15.3326 222.777C29.506 232.637 44.2888 241.797 59.5772 250.064C59.7978 250.216 60.0833 250.227 60.304 250.379C52.7232 243.46 47.2305 234.935 43.2299 226.323C42.6194 224.905 44.9154 223.693 46.304 224.467C59.5289 231.742 72.017 244.231 74.3724 257.927C106.739 274.142 141.298 286.832 178.124 295.617C173.424 289.382 169.074 283.017 164.88 276.945C163.608 275.07 162.335 273.195 161.063 271.321C160.674 271.114 160.518 270.819 160.479 270.481C160.219 269.991 159.791 269.446 159.531 268.955C159.064 269.13 158.714 269.261 158.091 269.142C133.644 265.244 110.764 253.472 89.4544 243.345C87.4429 242.453 88.3496 239.409 90.6851 239.593C109.772 241.029 128.782 246.021 144.901 254.799C129.313 243.589 113.724 232.378 97.9546 221.353C96.3581 220.187 98.1603 217.514 100.237 218.265C117.587 224.348 132.811 233.814 144.871 245.758C138.936 235.871 133.404 225.951 127.82 215.932C123.807 208.617 119.794 201.303 115.846 193.846C106.346 189.643 97.0408 185.015 88.0987 180.016C87.8524 180.343 87.2686 180.562 86.9441 180.213C86.9441 180.213 86.9441 180.213 86.8921 180.115C85.1012 179.375 83.4791 178.689 81.7401 178.047C55.7649 178.131 30.0482 176.591 4.4216 173.371C2.48827 173.154 2.79835 170.569 4.42001 170.197C29.0692 164.966 54.8763 165.885 77.6774 174.865C78.2483 174.886 78.7673 174.81 79.2214 174.875C53.1213 159.135 29.7701 140.133 9.4154 119.655C8.59761 118.904 9.97237 117.801 10.7902 118.553C30.4042 136.839 51.9243 152.647 75.1823 166.982C65.8604 155.189 58.3027 142.5 51.9125 129.374C51.0941 127.564 53.8565 125.119 55.5831 127.059C55.687 127.255 55.8557 127.31 55.9596 127.506C68.4744 141.631 77.5515 156.925 85.4354 173.136C86.4347 173.703 87.4341 174.269 88.4334 174.835C88.8876 174.9 89.2769 175.107 89.4847 175.5C97.0901 179.824 104.812 184.104 112.768 188.297C100.3 164.75 88.2994 141.027 76.5322 117.217C56.6504 108.202 48.5191 90.2025 42.9311 72.779C35.2121 49.2171 26.1954 25.318 21.3695 1.14319C21.2913 0.467084 22.2124 0.357358 22.5241 0.946045C23.3424 2.75582 24.1088 4.46746 24.8104 6.32094C24.1608 4.56557 23.576 2.66842 23.0431 0.869345C22.9001 0.335062 23.7693 0.127213 23.9771 0.519672C29.7038 10.0145 34.7819 19.8696 39.5746 29.7141C53.1846 54.3622 64.8747 79.6116 76.7335 104.915C80.5883 82.0756 88.2059 59.473 96.6932 37.7204C97.354 36.0622 100.805 35.7106 101.208 37.7934C103.122 50.1265 104.491 63.0163 100.41 75.1248C95.8756 88.2262 83.3084 98.5742 82.1608 112.524C82.1223 113.244 81.6943 113.756 81.0458 114.117C81.1497 114.313 81.3055 114.607 81.4094 114.804C85.0458 121.672 88.7342 128.638 92.3706 135.506C99.1368 148.021 105.838 160.677 112.54 173.334C109.402 152.877 114.763 131.825 119.969 111.536C120.331 110.107 123.173 110.454 122.979 111.937C121.182 125.189 123.939 137.794 125.178 150.968C126.3 163.127 122.322 173.316 119.539 184.704C120.227 186.797 121.033 188.847 121.89 190.995C132.864 211.457 144.305 231.745 156.629 251.584C153.138 224.911 165.397 195.75 175.375 171.794C175.842 170.561 178.411 170.657 178.217 172.141C176.129 199.374 172.147 226.729 164.829 253.334C171.039 242.074 182.413 232.643 193.229 224.009C194.902 222.677 197.225 224.158 196.85 225.827C192.953 241.982 182.814 257.181 167.224 267.368C167.107 267.412 166.99 267.455 166.874 267.499C173.548 277.462 180.52 287.196 188.024 296.613C196.606 307.273 206.666 317.026 215.183 327.828C217.26 329.636 213.563 331.373 211.577 330Z" fill="#96D06B" fill-opacity="0.34"/>
</svg>
