<svg width="288" height="338" viewBox="0 0 288 338" fill="none" xmlns="http://www.w3.org/2000/svg">
<path d="M173.433 188.879C171.668 188.842 170.019 189.524 168.757 190.844C168.216 191.477 167.804 192.166 167.519 192.912C167.086 193.324 166.706 193.626 166.364 194.011C165.931 194.424 166.627 195.064 167.135 194.818C167.135 194.818 167.135 194.818 167.225 194.791C167.204 196.588 167.747 198.5 168.489 200.163C173.496 211.863 179.774 223.183 184.964 234.828C188.893 243.646 192.677 252.6 196.244 261.526C182.448 253.871 166.364 248.691 151.338 244.043C144.409 241.874 137.372 239.926 130.298 237.895C136.458 228.416 132.469 216.694 128.272 206.354C127.753 205.189 125.956 205.539 126.075 206.729C127.114 215.751 127.151 224.602 127.443 233.565C127.406 233.481 127.279 233.425 127.242 233.342C116.76 208.668 99.984 183.709 76.0959 167.478C74.9254 166.697 73.4612 167.795 74.3801 168.934C91.3516 191.1 108.612 212.992 125.493 235.185C119.37 227.213 111.272 220.115 103.306 213.543C94.1317 206.107 84.2195 199.551 73.8039 193.712C72.7075 193.098 71.5731 194.474 72.3437 195.281C80.074 204.092 88.526 212.215 97.8813 219.597C104.673 224.918 112.067 230.436 119.906 234.877C113.781 233.128 107.783 231.435 101.711 229.575C89.8225 225.968 77.9302 221.891 66.5948 216.987C58.5885 207.788 53.3943 197.746 48.3406 187.097C43.637 177.003 38.6945 166.604 29.8796 158.589C28.6886 157.531 27.3357 158.879 27.6898 159.904C34.4379 179.662 45.5773 198.2 60.6428 214.243C43.2072 206.263 26.9722 196.132 13.7279 182.56C13.3241 182.115 12.4004 182.58 12.8412 183.108C22.2775 193.671 33.9163 202.256 46.5617 209.407C40.9842 207.965 35.0517 207.572 29.7211 207.376C20.3337 207.075 11.0653 207.963 1.8876 208.824C0.415704 208.982 0.394263 210.779 1.90714 211.175C10.3455 213.269 18.9038 214.479 27.4709 214.555C32.0183 214.608 36.4174 214.328 40.8331 213.855C45.0674 213.437 49.5982 213.683 53.7954 213.182C63.1107 217.936 72.9663 222.057 82.8717 225.597C63.9389 227.87 44.3545 230.525 28.9596 240.506C27.7843 241.329 28.8885 242.884 30.2862 242.56C40.5281 240.627 50.6216 238.36 60.5299 235.678C69.4403 233.294 79.0969 230.97 87.3401 227.088C90.1308 228.044 92.9214 229.001 95.8028 229.929C104.665 232.745 113.545 235.367 122.515 237.962C112.594 241.308 103.722 248.394 96.9209 255.049C95.9104 256.012 97.394 257.264 98.5197 257.022C110.868 254.74 123.173 249.361 130.627 240.248C136.188 241.884 141.658 243.546 147.128 245.209C155.773 247.995 164.417 250.782 172.974 254.066C181.531 257.35 189.495 261.378 197.838 265.103C197.965 265.159 198.093 265.215 198.184 265.188C203.702 279.186 208.676 293.348 212.705 307.697C212.985 308.556 213.958 309.585 215.063 309.066C221.751 306.31 228.238 303.331 234.761 300.436C235.359 300.163 235.624 299.141 235.364 298.559C221.815 274.614 210.534 249.99 201.484 224.605C199.269 218.48 197.272 212.384 195.329 206.178C193.814 201.163 193.191 193.996 189.082 189.852C184.228 185.649 178.377 186.362 173.433 188.879Z" fill="#96D06B" fill-opacity="0.34"/>
<path d="M228.361 299.177C223.779 300.553 219.065 303.466 215.36 306.358C213.273 306.704 213.023 309.12 214.206 310.639C214.916 311.549 216.272 312.079 217.354 312.223C217.354 312.223 217.444 312.196 217.48 312.279C218.613 316.435 219.963 320.619 221.096 324.775C222.078 328.133 222.545 334.456 225.986 336.702C231.583 340.361 242.052 334.128 242.875 329.104C243.527 325.068 241.218 320.328 240.068 316.364C238.625 311.739 237.926 305.58 235.225 301.332C233.564 298.74 231.057 298.368 228.361 299.177ZM216.505 309.855C215.873 309.576 215.452 308.859 215.502 308.283C215.824 308.092 216.094 308.011 216.417 307.821C216.621 308.509 216.771 309.307 216.975 309.995C216.759 309.966 216.632 309.91 216.505 309.855Z" fill="#96D06B" fill-opacity="0.34"/>
<path d="M280.818 25.5183C273.09 29.722 265.272 33.953 258.302 39.1602C254.363 42.136 250.027 45.6093 246.973 49.6449C251.036 37.4539 253.195 24.697 252.1 11.5888C252.021 10.9499 251.036 11.0554 250.986 11.638C251.442 29.1008 247.029 45.3704 239.98 60.8201C238.842 40.4389 232.703 20.4181 222.374 1.65077C221.799 0.592713 219.642 0.38629 219.653 1.80205C219.214 12.6255 223.631 23.2263 227.99 33.466C232.609 44.2901 236.459 54.7767 237.576 66.0808C232.653 75.8797 226.741 85.3122 220.551 94.3546C217.357 99.0001 214.126 103.562 210.766 108.068C213.278 100.504 214.598 92.3503 215.612 84.6668C216.967 74.0429 217.096 63.2177 216.02 52.469C215.938 51.3582 214.017 50.9866 213.66 52.0394C210.182 62.0685 207.747 72.3533 206.666 82.8955C205.61 92.1055 205.088 101.818 206.719 111.265C202.156 85.2852 198.123 59.336 193.651 33.3287C193.403 32.0782 191.466 31.9007 191.184 33.1205C185.658 58.2389 192.484 86.2857 203.921 110.778C203.958 110.861 203.904 110.972 203.941 111.055C197.088 104.022 190.091 97.126 183.801 89.7346C182.99 88.8418 181.205 89.4702 181.817 90.6117C186.76 100.771 192.953 111.882 205.169 115.892C201.304 121.117 197.567 126.398 193.867 131.762C186.505 142.575 178.82 154.051 174.173 166.322C163.007 147.994 153.46 128.898 145.773 109.341C143.552 103.666 141.551 98.0193 139.512 92.2895C137.755 87.4219 135.65 82.469 131.491 78.6982C125.804 73.5865 116.494 71.9242 111.13 77.0294C110.786 77.4161 110.645 78.026 110.868 78.5269C114.529 86.0423 117.262 94.0244 121.507 101.46C133.819 130.231 147.39 158.816 160.431 187.369C160.803 188.204 161.958 188.71 162.869 188.438C169.299 186.42 175.821 184.375 182.252 182.357C183.345 182.03 183.573 180.921 182.944 179.973C180.78 176.741 178.579 173.426 176.598 170.139C179.631 163.744 182.317 157.263 185.827 151.009C189.804 143.953 194.15 137.26 198.679 130.512C201.529 126.254 204.417 122.078 207.433 117.959C220.353 121.002 233.958 118.635 245.334 113.814C246.481 113.376 246.539 111.655 245.004 111.452C234.525 109.95 222.027 109.242 211.857 111.905C216.696 105.159 221.481 98.5236 226.026 91.5817C227.451 89.4523 228.93 87.2121 230.281 84.9157C239.675 83.525 248.926 80.1904 257.651 77.297C267.377 74.1038 277.009 70.466 286.31 66.5488C287.511 66.0003 287.222 64.1944 285.706 64.2692C266.003 64.7692 248.867 73.1116 232.535 81.403C237.345 73.4356 241.659 65.0489 245.058 56.4628C248.677 54.6233 251.87 52.0596 255.543 50.1094C259.27 48.0484 262.998 45.9875 266.356 43.5636C272.875 38.9645 278.492 33.4998 283.318 27.42C283.509 26.2274 282.073 24.8592 280.818 25.5183Z" fill="#96D06B" fill-opacity="0.34"/>
</svg>
