<svg width="240" height="431" viewBox="0 0 240 431" fill="none" xmlns="http://www.w3.org/2000/svg">
<path d="M237.877 127.685C222.058 132.452 206.626 138.06 191.83 144.55C193.079 142.307 194.093 139.914 195.215 137.651C197.704 132.385 199.832 126.949 201.583 121.452C205.084 110.458 207.076 99.2186 207.576 87.6255C207.676 85.3069 204.348 84.3211 203.007 86.3268C197.174 95.7189 192.784 105.79 189.995 116.344C187.809 124.661 185.339 134.822 186.641 143.928C186.289 144.538 185.937 145.148 185.711 145.779C185.283 146.043 185.057 146.673 185.116 147.127C185.082 147.344 184.94 147.432 184.906 147.649C172.559 153.314 160.647 159.494 149.046 166.17C160.761 145.392 166.531 122.203 165.947 98.4256C165.929 96.8662 163.196 96.1996 162.241 97.3785C146.661 115.637 144.052 140.897 145.634 164.058C144.419 166.084 143.187 168.219 141.972 170.245C141.955 170.354 141.813 170.442 141.796 170.55C134.671 174.951 127.638 179.59 120.841 184.377C122.189 179.816 122.8 175.023 123.453 170.793C124.792 162.116 124.731 153.322 123.899 144.515C123.663 142.697 120.754 142.336 120 143.881C112.844 158.506 109.579 174.653 111.981 190.831C103.39 197.218 95.1252 203.991 87.2214 210.934C97.7161 173.836 107.205 136.575 115.83 99.0627C116.894 94.677 117.815 90.3793 118.752 85.9732C131.169 88.2139 145.897 82.158 154.975 75.9619C156.274 75.0612 155.444 72.9249 153.616 73.0725C142.776 73.9789 131.61 74.4987 120.904 76.2052C120.938 75.9883 120.971 75.7713 121.005 75.5544C146.665 67.1616 165.237 45.3864 172.055 22.9236C172.541 21.446 170.034 20.149 168.735 21.0497C151.049 33.7406 134.395 48.9342 122.897 66.6337C127.502 45.1454 131.479 23.5549 134.198 1.75992C134.382 0.56682 132.37 0.239753 132.06 1.41241C126.583 21.8695 121.608 42.4083 116.634 62.9472C115.735 57.909 114.082 52.7482 112.882 47.9945C110.835 39.5452 108.519 31.1634 106.345 22.6937C105.875 20.7271 102.337 20.2631 102.128 22.4529C101.276 32.988 100.39 43.7402 103.553 54.1498C105.357 60.0023 108.687 67.6594 114.456 72.0439C110.185 89.6951 106.04 107.367 101.644 124.998C98.16 108.31 93.6369 91.6749 89.3821 74.9727C88.9288 72.8977 85.2483 72.5218 84.8968 74.7995C82.5131 96.093 85.6465 120.062 97.9503 139.741C95.3709 149.773 92.7914 159.805 90.0861 169.816C87.0543 181.109 83.9133 192.273 80.63 203.525C79.8574 198.507 78.7998 193.665 77.977 188.973C77.5572 186.681 77.0117 184.369 76.4662 182.056C86.901 172.078 91.2651 158 90.0375 144.236C89.8946 142.656 87.6309 142.288 86.5832 143.23C79.5008 149.861 73.9868 158.86 72.6563 168.317C71.2635 163.977 69.745 159.616 67.9749 155.215C66.3138 150.942 64.527 146.649 62.4719 142.424C62.4886 142.315 62.5055 142.207 62.6312 142.227C68.4271 121.377 68.9579 99.5599 64.4167 78.0303C64.1146 76.6469 61.7587 76.0416 61.0213 77.4783C53.3128 94.0148 51.0878 113.444 57.0951 131.321C49.8564 117.246 41.1006 103.815 30.8274 91.0269C30.3913 90.5113 29.5363 91.0394 29.9724 91.555C41.7135 107.362 51.4764 124.292 58.825 141.831C58.7581 142.265 58.9594 142.631 59.3032 142.909C60.335 145.412 61.241 147.894 62.1471 150.376C55.1707 145.462 47.7166 141.137 40.4218 136.616C38.074 135.122 29.4957 128.057 27.0407 133.106C24.9376 137.545 33.5316 141.166 36.634 142.782C45.5469 147.678 54.9634 154.323 64.6305 157.673C68.062 168.015 70.6889 178.56 72.6702 189.111C74.5004 198.97 74.6289 208.998 75.9393 218.884C68.6438 243.604 61.1134 268.175 53.0633 292.772C52.9792 291.647 52.8951 290.521 52.811 289.396C52.4577 285.002 51.9786 280.588 51.2313 276.242C51.3738 276.154 51.5164 276.066 51.6756 275.869C60.1237 266.235 61.5365 251.232 60.0411 239.204C59.7724 237.603 57.3494 237.432 56.6455 238.652C52.7153 244.906 49.498 252.389 48.1838 260.069C47.8649 258.794 47.546 257.519 47.2271 256.245C46.4803 253.566 45.7168 250.996 44.97 248.317C45.2549 248.141 45.4141 247.945 45.59 247.64C51.0611 234.742 54.2599 220.697 56.872 207.112C57.5836 203.336 63.4135 183.937 52.1631 184.999C48.2397 185.362 47.0417 188.948 46.3383 191.835C44.7138 199.021 44.1876 206.607 43.4434 213.935C42.6743 222.26 41.9975 230.823 41.983 239.27C36.471 224.032 29.1902 209.395 20.1741 195.143C19.3522 193.786 16.7955 194.483 17.6007 195.948C25.7116 211.053 32.0202 226.977 36.7695 242.981C27.3019 233.326 15.7222 225.662 2.72611 219.658C1.51874 219.128 -0.207954 220.293 0.50497 221.521C8.49777 234.05 22.409 244.983 38.431 248.922C39.1443 251.817 39.8576 254.713 40.571 257.609C42.8875 267.658 44.5585 277.714 45.4247 287.973C46.1982 296.326 45.6638 304.8 46.3115 313.133C43.6728 321.043 41.0508 328.845 38.303 336.626C27.84 366.835 16.0103 396.711 6.28506 427.151C5.27986 430.323 11.3584 431.867 12.7074 428.973C23.5662 405.388 32.2451 380.893 40.7982 356.378C43.4717 353.254 45.7091 349.615 48.2736 346.363C52.1455 341.322 56.2522 336.43 60.5936 331.688C62.1525 329.94 63.8204 328.321 65.3792 326.573C65.614 326.722 65.9746 326.892 66.3519 326.954C77.9967 327.512 90.9728 321.95 100.604 317.178C101.853 316.603 101.258 314.616 99.8576 314.499C91.5661 313.93 82.6965 314.6 74.9424 317.232C77.9765 314.278 81.2452 311.474 84.3883 308.649C89.6448 308.836 95.5799 307.133 100.266 306.004C107.35 304.376 114.156 302.036 120.653 299.201C132.824 293.841 143.612 286.589 152.589 277.707C153.796 276.569 152.412 274.677 150.727 274.736C140.993 275.156 130.674 277.703 120.891 281.783C132.467 274.437 144.697 267.864 157.329 262.023C158.168 261.603 157.312 260.463 156.491 260.775C139.935 266.978 124.453 274.579 109.935 283.449C113.362 278.781 116.681 273.983 119.639 269.016C127.633 255.639 132.551 241.317 133.117 225.955C133.209 224.524 131.121 223.851 130.274 225.159C115.618 249.127 101.792 273.564 88.5941 298.103C87.2781 299.112 85.9622 300.121 84.6295 301.239C80.8075 304.287 77.1111 307.355 73.5071 310.661C83.8724 291.109 89.7853 269.5 91.9343 248.057C92.0931 246.193 88.9238 245.011 88.1027 246.99C77.3285 273.368 66.5542 299.746 57.2555 326.587C56.7778 327.176 56.1744 327.745 55.6967 328.335C52.7381 331.634 49.9054 334.954 47.0559 338.382C55.3073 314.151 63.324 289.77 70.8376 265.308C75.4781 250.274 79.9761 235.328 84.2393 220.233C84.3818 220.145 84.3818 220.145 84.5243 220.057C93.2243 212.132 102.394 204.505 111.89 197.265C112.125 197.415 112.612 197.605 113.022 197.449C113.827 197.247 114.523 196.915 115.328 196.712C130.545 200.854 147.303 198.352 160.119 191.318C161.243 190.723 160.789 188.648 159.247 188.619C144.71 187.59 130.055 188.989 116.836 193.622L116.71 193.601C127.045 185.942 137.833 178.689 148.805 171.912C170.672 182.249 197.876 180.556 216.786 168.286C218.496 167.23 217.54 165.073 215.67 164.658C198.315 160.169 179.695 159.699 162.703 163.72C171.739 158.629 180.993 153.795 190.322 149.308C203.033 152.152 216.42 149.77 226.68 143.432C227.82 142.728 227.476 140.782 225.808 140.733C219.688 140.294 213.735 140.439 207.934 141.275C217.876 136.998 228.036 132.979 238.397 129.326C240.115 129.05 239.235 127.239 237.877 127.685Z" fill="#96D06B" fill-opacity="0.34"/>
</svg>
