<svg width="24" height="24" viewBox="0 0 24 24" fill="none" xmlns="http://www.w3.org/2000/svg">
<path d="M17.6889 7.16443L14.906 11.9809L12.1233 7.16443L9.34154 11.979L6.55979 7.16443L3.7757 11.9827L6.55979 16.8013L9.34154 11.9865L12.1233 16.8013L14.906 11.9848L17.6889 16.8013L20.473 11.9827L17.6889 7.16443Z" fill="#152807"/>
<path d="M12 2.87659C5.92473 2.87659 1 6.96115 1 12C1 17.0387 5.92496 21.1235 12 21.1235C18.075 21.1235 23 17.0387 23 12C23 6.96115 18.075 2.87659 12 2.87659ZM12 20.3188C6.46082 20.3188 1.97044 16.5938 1.97044 12C1.97044 7.40579 6.46082 3.6812 12 3.6812C17.5392 3.6812 22.0293 7.40579 22.0293 12C22.0293 16.5938 17.5392 20.3188 12 20.3188Z" fill="#152807"/>
</svg>
