<svg width="24" height="24" viewBox="0 0 24 24" fill="none" xmlns="http://www.w3.org/2000/svg">
<path d="M14.8028 0.934296H11.9999V2.68611H13.9269V5.98536C13.9269 8.88317 11.5692 11.2408 8.67137 11.2408C5.77356 11.2408 3.41594 8.88322 3.41594 5.98541V2.68611H5.28456V0.934296H2.54003C2.05623 0.934296 1.66412 1.32641 1.66412 1.8102V5.98541C1.66412 9.84936 4.80747 12.9927 8.67142 12.9927C12.5354 12.9927 15.6787 9.84936 15.6787 5.98541V1.8102C15.6787 1.32641 15.2866 0.934296 14.8028 0.934296Z" fill="#96D06B"/>
<path d="M18.2188 13.7226V17.8686C18.2188 20.2835 16.2541 22.2482 13.8392 22.2482C11.4243 22.2482 9.45964 20.2835 9.45964 17.8686V12.146H7.70782V17.8686C7.70782 21.2493 10.4582 24 13.8392 24C17.2199 24 19.9706 21.2493 19.9706 17.8686V13.7226H18.2188Z" fill="#96D06B"/>
<path d="M19.0951 8.05838C17.3076 8.05838 15.8539 9.51211 15.8539 11.2993C15.8539 13.0861 17.3076 14.5401 19.0948 14.5401C20.8819 14.5401 22.3357 13.0861 22.3359 11.2993C22.3359 9.51211 20.8819 8.05838 19.0951 8.05838ZM19.0948 12.7883C18.2735 12.7883 17.6054 12.1203 17.6054 11.2993C17.6054 10.4783 18.2734 9.81028 19.0948 9.81028C19.9158 9.81028 20.5838 10.4783 20.5838 11.2993C20.5838 12.1203 19.9158 12.7883 19.0948 12.7883Z" fill="#96D06B"/>
<path d="M5.25536 0C4.77156 0 4.37946 0.392109 4.37946 0.875906V2.74453C4.37946 3.22833 4.77156 3.62044 5.25536 3.62044C5.73915 3.62044 6.13126 3.22833 6.13126 2.74453V0.875906C6.13126 0.392109 5.73915 0 5.25536 0Z" fill="#96D06B"/>
<path d="M12.029 0C11.5452 0 11.1531 0.392109 11.1531 0.875906V2.74453C11.1531 3.22833 11.5452 3.62044 12.029 3.62044C12.5128 3.62044 12.9049 3.22833 12.9049 2.74453V0.875906C12.9049 0.392109 12.5128 0 12.029 0Z" fill="#96D06B"/>
</svg>
