<svg width="24" height="24" viewBox="0 0 24 24" fill="none" xmlns="http://www.w3.org/2000/svg">
<g clip-path="url(#clip0)">
<path d="M20.678 14.333C22.109 12.553 22.894 10.143 22.999 7.13597C23.009 6.85897 22.903 6.59097 22.707 6.39397C22.511 6.19697 22.233 6.09097 21.966 6.10197C19.58 6.18297 17.575 6.69197 15.95 7.58997C15.438 5.81097 14.363 4.04197 12.727 2.31297C12.348 1.91497 11.653 1.91497 11.274 2.31297C9.637 4.04197 8.563 5.81097 8.051 7.58997C6.426 6.69097 4.421 6.18297 2.035 6.10197C1.75 6.09297 1.489 6.19697 1.293 6.39397C1.097 6.59097 0.991 6.85797 1.001 7.13497C1.106 10.142 1.891 12.552 3.322 14.332C0.609 15.326 0 16.599 0 17.532C0 20.602 6.221 22 12 22C13.149 22 14.31 21.943 15.446 21.831C15.958 21.78 16.347 21.35 16.347 20.836V20.543L18.838 21.157C19.002 21.196 19.171 21.195 19.332 21.153C23.19 20.136 24 18.622 24 17.532C24 16.599 23.391 15.326 20.678 14.333ZM13.073 15.929C13.553 11.138 16.079 8.64397 20.927 8.17197C20.446 12.962 17.921 15.456 13.073 15.929ZM12 4.50597C13.212 5.97197 13.925 7.43197 14.177 8.86397C13.251 9.72497 12.524 10.784 12 12.033C11.475 10.784 10.749 9.72497 9.823 8.86397C10.075 7.43197 10.788 5.97197 12 4.50597ZM10.927 15.929C6.079 15.456 3.554 12.963 3.073 8.17197C7.921 8.64397 10.446 11.138 10.927 15.929ZM19.065 19.152L15.586 18.295C15.287 18.223 14.972 18.289 14.73 18.479C14.489 18.668 14.347 18.959 14.347 19.266V19.917C13.568 19.972 12.782 20 12 20C5.504 20 2 18.248 2 17.532C2 16.784 4.343 16.183 4.939 15.867C8.879 18.773 15.366 18.592 19.061 15.867C19.657 16.183 22 16.784 22 17.532C22 17.789 21.255 18.537 19.065 19.152Z" fill="white"/>
</g>
<defs>
<clipPath id="clip0">
<rect width="24" height="24" fill="white"/>
</clipPath>
</defs>
</svg>
