<svg width="24" height="24" viewBox="0 0 24 24" fill="none" xmlns="http://www.w3.org/2000/svg">
<g clip-path="url(#clip0)">
<path d="M17.26 0C15.46 0 13.77 0.7 12.5 1.97L1.97 12.5C0.7 13.77 0 15.46 0 17.26C0 20.98 3.02 24 6.74 24C8.19 24 9.57 23.54 10.72 22.69C10.33 22.16 10 21.57 9.75 20.92C8.9 21.62 7.85 22 6.74 22C4.13 22 2 19.87 2 17.26C2 16 2.49 14.81 3.39 13.91L7.94 9.35L13.16 14.58C13.5 14.63 13.83 14.7 14.15 14.79C14.38 14.36 14.65 13.95 14.96 13.54L9.36 7.94L13.91 3.39C14.81 2.49 16 2 17.26 2C19.87 2 22 4.13 22 6.74C22 8 21.51 9.19 20.61 10.09L18.51 12.19C18.94 12.35 19.33 12.63 19.62 12.99C19.76 13.16 19.9 13.33 20.02 13.51L22.03 11.5C23.3 10.23 24 8.54 24 6.74C24 3.02 20.98 0 17.26 0Z" fill="white"/>
<path d="M23.779 16.648C23.628 16.497 23.41 16.419 23.204 16.431C21.856 16.515 20.709 16.829 19.757 17.344C19.469 16.305 18.914 15.272 18.079 14.259C17.794 13.912 17.206 13.912 16.921 14.259C16.086 15.272 15.531 16.305 15.243 17.344C14.291 16.829 13.144 16.514 11.796 16.431C11.587 16.418 11.373 16.497 11.221 16.648C11.069 16.799 10.989 17.008 11.001 17.222C11.239 21.395 13.332 23.611 17.471 23.999C17.494 23.999 17.576 23.998 17.599 23.996C21.667 23.611 23.761 21.395 23.998 17.222C24.011 17.009 23.931 16.8 23.779 16.648Z" fill="white"/>
</g>
<defs>
<clipPath id="clip0">
<rect width="24" height="24" fill="white"/>
</clipPath>
</defs>
</svg>
